0
SECTION
2
ENTITIES
0
LWPOLYLINE
8
OUTLINE
90
100
70
1
10
50.0000
20
44.0000
10
49.9872
20
44.3924
10
49.9487
20
44.7832
10
49.8847
20
45.1705
10
49.7956
20
45.5529
10
49.6816
20
45.9286
10
49.5433
20
46.2961
10
49.3812
20
46.6537
10
49.1962
20
47.0000
10
48.9888
20
47.3334
10
48.7601
20
47.6526
10
48.5110
20
47.9561
10
48.2426
20
48.2426
10
47.9561
20
48.5110
10
47.6526
20
48.7601
10
47.3334
20
48.9888
10
47.0000
20
49.1962
10
46.6537
20
49.3812
10
46.2961
20
49.5433
10
45.9286
20
49.6816
10
45.5529
20
49.7956
10
45.1705
20
49.8847
10
44.7832
20
49.9487
10
44.3924
20
49.9872
10
44.0000
20
50.0000
10
6.0000
20
50.0000
10
5.6076
20
49.9872
10
5.2168
20
49.9487
10
4.8295
20
49.8847
10
4.4471
20
49.7956
10
4.0714
20
49.6816
10
3.7039
20
49.5433
10
3.3463
20
49.3812
10
3.0000
20
49.1962
10
2.6666
20
48.9888
10
2.3474
20
48.7601
10
2.0439
20
48.5110
10
1.7574
20
48.2426
10
1.4890
20
47.9561
10
1.2399
20
47.6526
10
1.0112
20
47.3334
10
0.8038
20
47.0000
10
0.6188
20
46.6537
10
0.4567
20
46.2961
10
0.3184
20
45.9286
10
0.2044
20
45.5529
10
0.1153
20
45.1705
10
0.0513
20
44.7832
10
0.0128
20
44.3924
10
0.0000
20
44.0000
10
0.0000
20
6.0000
10
0.0128
20
5.6076
10
0.0513
20
5.2168
10
0.1153
20
4.8295
10
0.2044
20
4.4471
10
0.3184
20
4.0714
10
0.4567
20
3.7039
10
0.6188
20
3.3463
10
0.8038
20
3.0000
10
1.0112
20
2.6666
10
1.2399
20
2.3474
10
1.4890
20
2.0439
10
1.7574
20
1.7574
10
2.0439
20
1.4890
10
2.3474
20
1.2399
10
2.6666
20
1.0112
10
3.0000
20
0.8038
10
3.3463
20
0.6188
10
3.7039
20
0.4567
10
4.0714
20
0.3184
10
4.4471
20
0.2044
10
4.8295
20
0.1153
10
5.2168
20
0.0513
10
5.6076
20
0.0128
10
6.0000
20
0.0000
10
44.0000
20
0.0000
10
44.3924
20
0.0128
10
44.7832
20
0.0513
10
45.1705
20
0.1153
10
45.5529
20
0.2044
10
45.9286
20
0.3184
10
46.2961
20
0.4567
10
46.6537
20
0.6188
10
47.0000
20
0.8038
10
47.3334
20
1.0112
10
47.6526
20
1.2399
10
47.9561
20
1.4890
10
48.2426
20
1.7574
10
48.5110
20
2.0439
10
48.7601
20
2.3474
10
48.9888
20
2.6666
10
49.1962
20
3.0000
10
49.3812
20
3.3463
10
49.5433
20
3.7039
10
49.6816
20
4.0714
10
49.7956
20
4.4471
10
49.8847
20
4.8295
10
49.9487
20
5.2168
10
49.9872
20
5.6076
10
50.0000
20
6.0000
0
CIRCLE
8
HOLE_THRU
10
6.0000
20
6.0000
30
0.0
40
2.0000
0
CIRCLE
8
POCKET_INLAY
10
25.0000
20
25.0000
30
0.0
40
13.0000
0
CIRCLE
8
POCKET_LID
10
25.0000
20
25.0000
30
0.0
40
14.0000
0
LWPOLYLINE
8
ENGRAVE_MAGATAMA
90
580
70
1
10
26.0150
20
41.6709
10
26.2772
20
41.3964
10
26.5533
20
41.1878
10
26.8294
20
40.9913
10
27.1040
20
40.8000
10
27.3763
20
40.6110
10
27.6462
20
40.4226
10
27.9132
20
40.2341
10
28.1774
20
40.0447
10
28.4385
20
39.8542
10
28.6965
20
39.6621
10
28.9514
20
39.4683
10
29.2030
20
39.2726
10
29.4513
20
39.0749
10
29.6963
20
38.8751
10
29.9379
20
38.6732
10
30.1761
20
38.4691
10
30.4108
20
38.2628
10
30.6420
20
38.0543
10
30.8696
20
37.8436
10
31.0937
20
37.6306
10
31.3142
20
37.4154
10
31.5310
20
37.1981
10
31.7441
20
36.9786
10
31.9536
20
36.7569
10
32.1593
20
36.5331
10
32.3612
20
36.3073
10
32.5594
20
36.0794
10
32.7537
20
35.8495
10
32.9443
20
35.6176
10
33.1309
20
35.3838
10
33.3137
20
35.1482
10
33.4925
20
34.9107
10
33.6675
20
34.6714
10
33.8384
20
34.4304
10
34.0055
20
34.1877
10
34.1685
20
33.9434
10
34.3275
20
33.6975
10
34.4826
20
33.4501
10
34.6336
20
33.2012
10
34.7805
20
32.9509
10
34.9234
20
32.6992
10
35.0622
20
32.4462
10
35.1969
20
32.1920
10
35.3276
20
31.9366
10
35.4541
20
31.6800
10
35.5766
20
31.4224
10
35.6949
20
31.1638
10
35.8091
20
30.9042
10
35.9191
20
30.6437
10
36.0250
20
30.3824
10
36.1268
20
30.1202
10
36.2245
20
29.8574
10
36.3180
20
29.5939
10
36.4073
20
29.3298
10
36.4925
20
29.0652
10
36.5736
20
28.8000
10
36.6505
20
28.5345
10
36.7233
20
28.2686
10
36.7920
20
28.0024
10
36.8565
20
27.7360
10
36.9169
20
27.4693
10
36.9732
20
27.2026
10
37.0253
20
26.9358
10
37.0734
20
26.6690
10
37.1174
20
26.4023
10
37.1573
20
26.1356
10
37.1931
20
25.8692
10
37.2249
20
25.6030
10
37.2526
20
25.3371
10
37.2763
20
25.0715
10
37.2960
20
24.8064
10
37.3117
20
24.5417
10
37.3234
20
24.2775
10
37.3311
20
24.0140
10
37.3349
20
23.7510
10
37.3347
20
23.4888
10
37.3306
20
23.2274
10
37.3227
20
22.9667
10
37.3109
20
22.7069
10
37.2952
20
22.4481
10
37.2757
20
22.1902
10
37.2524
20
21.9333
10
37.2253
20
21.6776
10
37.1945
20
21.4229
10
37.1600
20
21.1695
10
37.1218
20
20.9173
10
37.0799
20
20.6664
10
37.0343
20
20.4169
10
36.9852
20
20.1687
10
36.9325
20
19.9220
10
36.8762
20
19.6769
10
36.8164
20
19.4332
10
36.7532
20
19.1912
10
36.6864
20
18.9508
10
36.6163
20
18.7121
10
36.5428
20
18.4751
10
36.4659
20
18.2400
10
36.3857
20
18.0067
10
36.3023
20
17.7752
10
36.2156
20
17.5457
10
36.1257
20
17.3181
10
36.0326
20
17.0926
10
35.9364
20
16.8691
10
35.8371
20
16.6477
10
35.7348
20
16.4285
10
35.6295
20
16.2114
10
35.5212
20
15.9965
10
35.4100
20
15.7839
10
35.2959
20
15.5736
10
35.1789
20
15.3657
10
35.0592
20
15.1601
10
34.9367
20
14.9569
10
34.8115
20
14.7561
10
34.6836
20
14.5579
10
34.5532
20
14.3621
10
34.4201
20
14.1689
10
34.2845
20
13.9783
10
34.1464
20
13.7903
10
34.0059
20
13.6049
10
33.8630
20
13.4222
10
33.7178
20
13.2422
10
33.5703
20
13.0649
10
33.4205
20
12.8904
10
33.2685
20
12.7186
10
33.1144
20
12.5497
10
32.9581
20
12.3836
10
32.7999
20
12.2203
10
32.6396
20
12.0600
10
32.4773
20
11.9025
10
32.3132
20
11.7480
10
32.1472
20
11.5965
10
31.9794
20
11.4479
10
31.8098
20
11.3023
10
31.6386
20
11.1597
10
31.4657
20
11.0201
10
31.2912
20
10.8835
10
31.1151
20
10.7501
10
30.9376
20
10.6197
10
30.7586
20
10.4924
10
30.5782
20
10.3682
10
30.3965
20
10.2471
10
30.2135
20
10.1292
10
30.0292
20
10.0143
10
29.8438
20
9.9027
10
29.6572
20
9.7942
10
29.4695
20
9.6888
10
29.2809
20
9.5867
10
29.0912
20
9.4877
10
28.9006
20
9.3919
10
28.7091
20
9.2994
10
28.5168
20
9.2100
10
28.3238
20
9.1238
10
28.1300
20
9.0408
10
27.9356
20
8.9611
10
27.7405
20
8.8845
10
27.5449
20
8.8112
10
27.3488
20
8.7411
10
27.1522
20
8.6741
10
26.9552
20
8.6104
10
26.7578
20
8.5499
10
26.5601
20
8.4926
10
26.3622
20
8.4385
10
26.1641
20
8.3876
10
25.9658
20
8.3399
10
25.7674
20
8.2953
10
25.5690
20
8.2540
10
25.3705
20
8.2157
10
25.1721
20
8.1807
10
24.9738
20
8.1488
10
24.7756
20
8.1200
10
24.5776
20
8.0943
10
24.3799
20
8.0718
10
24.1824
20
8.0524
10
23.9853
20
8.0360
10
23.7885
20
8.0227
10
23.5922
20
8.0125
10
23.3964
20
8.0053
10
23.2011
20
8.0012
10
23.0063
20
8.0000
10
22.8122
20
8.0018
10
22.6187
20
8.0066
10
22.4259
20
8.0144
10
22.2339
20
8.0251
10
22.0426
20
8.0387
10
21.8522
20
8.0552
10
21.6627
20
8.0746
10
21.4741
20
8.0968
10
21.2864
20
8.1218
10
21.0998
20
8.1497
10
20.9141
20
8.1803
10
20.7296
20
8.2136
10
20.5462
20
8.2497
10
20.3640
20
8.2885
10
20.1830
20
8.3300
10
20.0032
20
8.3741
10
19.8247
20
8.4209
10
19.6475
20
8.4702
10
19.4717
20
8.5221
10
19.2972
20
8.5765
10
19.1242
20
8.6334
10
18.9526
20
8.6928
10
18.7826
20
8.7547
10
18.6141
20
8.8190
10
18.4471
20
8.8856
10
18.2817
20
8.9546
10
18.1180
20
9.0259
10
17.9559
20
9.0995
10
17.7956
20
9.1753
10
17.6369
20
9.2534
10
17.4800
20
9.3336
10
17.3249
20
9.4160
10
17.1716
20
9.5005
10
17.0201
20
9.5871
10
16.8705
20
9.6757
10
16.7228
20
9.7664
10
16.5770
20
9.8590
10
16.4332
20
9.9535
10
16.2913
20
10.0499
10
16.1515
20
10.1482
10
16.0136
20
10.2483
10
15.8778
20
10.3502
10
15.7440
20
10.4538
10
15.6123
20
10.5591
10
15.4828
20
10.6661
10
15.3553
20
10.7748
10
15.2300
20
10.8850
10
15.1069
20
10.9967
10
14.9859
20
11.1100
10
14.8672
20
11.2248
10
14.7506
20
11.3409
10
14.6363
20
11.4585
10
14.5242
20
11.5774
10
14.4144
20
11.6977
10
14.3069
20
11.8192
10
14.2016
20
11.9419
10
14.0987
20
12.0658
10
13.9980
20
12.1909
10
13.8997
20
12.3170
10
13.8037
20
12.4443
10
13.7101
20
12.5725
10
13.7101
20
12.5725
10
13.5674
20
12.7004
10
13.4335
20
12.8373
10
13.3088
20
12.9827
10
13.1938
20
13.1359
10
13.0891
20
13.2963
10
12.9952
20
13.4632
10
12.9123
20
13.6360
10
12.8410
20
13.8137
10
12.7814
20
13.9957
10
12.7338
20
14.1813
10
12.6985
20
14.3696
10
12.6756
20
14.5597
10
12.6651
20
14.7510
10
12.6672
20
14.9425
10
12.6818
20
15.1335
10
12.7089
20
15.3231
10
12.7483
20
15.5106
10
12.7999
20
15.6950
10
12.8635
20
15.8757
10
12.9387
20
16.0519
10
13.0253
20
16.2228
10
13.1229
20
16.3876
10
13.2310
20
16.5457
10
13.3493
20
16.6964
10
13.4771
20
16.8390
10
13.6140
20
16.9729
10
13.7594
20
17.0977
10
13.9126
20
17.2126
10
14.0731
20
17.3173
10
14.2400
20
17.4112
10
14.4127
20
17.4941
10
14.5904
20
17.5654
10
14.7725
20
17.6250
10
14.9580
20
17.6726
10
15.1463
20
17.7079
10
15.3365
20
17.7308
10
15.5277
20
17.7413
10
15.7193
20
17.7392
10
15.9102
20
17.7246
10
16.0999
20
17.6975
10
16.2873
20
17.6581
10
16.4718
20
17.6065
10
16.6525
20
17.5429
10
16.8286
20
17.4677
10
16.9995
20
17.3811
10
17.1643
20
17.2836
10
17.3224
20
17.1754
10
17.4731
20
17.0572
10
17.4731
20
17.0572
10
17.5231
20
17.0135
10
17.5738
20
16.9706
10
17.6251
20
16.9285
10
17.6772
20
16.8872
10
17.7298
20
16.8466
10
17.7831
20
16.8069
10
17.8370
20
16.7679
10
17.8916
20
16.7298
10
17.9467
20
16.6925
10
18.0024
20
16.6560
10
18.0587
20
16.6204
10
18.1155
20
16.5857
10
18.1729
20
16.5518
10
18.2308
20
16.5187
10
18.2892
20
16.4866
10
18.3482
20
16.4554
10
18.4076
20
16.4250
10
18.4675
20
16.3956
10
18.5279
20
16.3670
10
18.5887
20
16.3394
10
18.6499
20
16.3127
10
18.7116
20
16.2870
10
18.7736
20
16.2622
10
18.8361
20
16.2383
10
18.8989
20
16.2155
10
18.9621
20
16.1935
10
19.0257
20
16.1726
10
19.0895
20
16.1526
10
19.1537
20
16.1336
10
19.2182
20
16.1155
10
19.2829
20
16.0985
10
19.3479
20
16.0825
10
19.4132
20
16.0674
10
19.4787
20
16.0534
10
19.5444
20
16.0404
10
19.6104
20
16.0284
10
19.6765
20
16.0173
10
19.7428
20
16.0074
10
19.8092
20
15.9984
10
19.8758
20
15.9905
10
19.9425
20
15.9835
10
20.0093
20
15.9777
10
20.0763
20
15.9728
10
20.1432
20
15.9690
10
20.2103
20
15.9662
10
20.2774
20
15.9644
10
20.3445
20
15.9637
10
20.4116
20
15.9640
10
20.4787
20
15.9653
10
20.5458
20
15.9677
10
20.6128
20
15.9711
10
20.6798
20
15.9756
10
20.7467
20
15.9811
10
20.8135
20
15.9876
10
20.8802
20
15.9951
10
20.9468
20
16.0037
10
21.0133
20
16.0133
10
21.0796
20
16.0240
10
21.1457
20
16.0356
10
21.2116
20
16.0483
10
21.2774
20
16.0620
10
21.3429
20
16.0767
10
21.4081
20
16.0924
10
21.4731
20
16.1092
10
21.5379
20
16.1269
10
21.6023
20
16.1456
10
21.6665
20
16.1654
10
21.7303
20
16.1861
10
21.7938
20
16.2078
10
21.8570
20
16.2305
10
21.9198
20
16.2542
10
21.9822
20
16.2788
10
22.0442
20
16.3044
10
22.1058
20
16.3310
10
22.1669
20
16.3585
10
22.2276
20
16.3869
10
22.2879
20
16.4163
10
22.3477
20
16.4466
10
22.4070
20
16.4779
10
22.4658
20
16.5100
10
22.5240
20
16.5431
10
22.5818
20
16.5770
10
22.6390
20
16.6118
10
22.6956
20
16.6476
10
22.7516
20
16.6842
10
22.8071
20
16.7216
10
22.8619
20
16.7599
10
22.9162
20
16.7991
10
22.9698
20
16.8390
10
23.0227
20
16.8798
10
23.0750
20
16.9214
10
23.1266
20
16.9638
10
23.1776
20
17.0070
10
23.2278
20
17.0510
10
23.2773
20
17.0958
10
23.3261
20
17.1413
10
23.3742
20
17.1875
10
23.4215
20
17.2345
10
23.4680
20
17.2822
10
23.5138
20
17.3306
10
23.5588
20
17.3797
10
23.6030
20
17.4294
10
23.6464
20
17.4799
10
23.6890
20
17.5310
10
23.7307
20
17.5827
10
23.7716
20
17.6351
10
23.8117
20
17.6881
10
23.8509
20
17.7416
10
23.8892
20
17.7958
10
23.9266
20
17.8505
10
23.9632
20
17.9058
10
23.9989
20
17.9617
10
24.0336
20
18.0180
10
24.0674
20
18.0749
10
24.1003
20
18.1323
10
24.1323
20
18.1901
10
24.1633
20
18.2484
10
24.1934
20
18.3072
10
24.2226
20
18.3664
10
24.2507
20
18.4260
10
24.2779
20
18.4860
10
24.3041
20
18.5465
10
24.3294
20
18.6072
10
24.3536
20
18.6684
10
24.3768
20
18.7298
10
24.3991
20
18.7916
10
24.4203
20
18.8537
10
24.4405
20
18.9161
10
24.4597
20
18.9787
10
24.4779
20
19.0416
10
24.4951
20
19.1048
10
24.5112
20
19.1681
10
24.5263
20
19.2316
10
24.5403
20
19.2954
10
24.5533
20
19.3593
10
24.5653
20
19.4233
10
24.5762
20
19.4875
10
24.5861
20
19.5517
10
24.5949
20
19.6161
10
24.6026
20
19.6806
10
24.6093
20
19.7451
10
24.6150
20
19.8096
10
24.6195
20
19.8741
10
24.6231
20
19.9387
10
24.6255
20
20.0032
10
24.6270
20
20.0678
10
24.6273
20
20.1322
10
24.6266
20
20.1966
10
24.6248
20
20.2609
10
24.6220
20
20.3251
10
24.6181
20
20.3891
10
24.6132
20
20.4530
10
24.6072
20
20.5167
10
24.6002
20
20.5803
10
24.5921
20
20.6437
10
24.5830
20
20.7068
10
24.5729
20
20.7697
10
24.5617
20
20.8323
10
24.5495
20
20.8947
10
24.5362
20
20.9567
10
24.5219
20
21.0185
10
24.5066
20
21.0799
10
24.4903
20
21.1410
10
24.4730
20
21.2017
10
24.4547
20
21.2620
10
24.4354
20
21.3219
10
24.4151
20
21.3813
10
24.3938
20
21.4404
10
24.3716
20
21.4989
10
24.3483
20
21.5570
10
24.3241
20
21.6146
10
24.2990
20
21.6717
10
24.2729
20
21.7282
10
24.2459
20
21.7842
10
24.2179
20
21.8396
10
24.1890
20
21.8944
10
24.1592
20
21.9486
10
24.1286
20
22.0022
10
24.0970
20
22.0551
10
24.0645
20
22.1074
10
24.0312
20
22.1589
10
23.9970
20
22.2098
10
23.9620
20
22.2600
10
23.9261
20
22.3094
10
23.8894
20
22.3581
10
23.8519
20
22.4060
10
23.8136
20
22.4531
10
23.7745
20
22.4994
10
23.7346
20
22.5449
10
23.6940
20
22.5895
10
23.6526
20
22.6333
10
23.6105
20
22.6761
10
23.5676
20
22.7181
10
23.5241
20
22.7592
10
23.4798
20
22.7993
10
23.4349
20
22.8385
10
23.3894
20
22.8767
10
23.3431
20
22.9139
10
23.2963
20
22.9501
10
23.2488
20
22.9853
10
23.2007
20
23.0194
10
23.1521
20
23.0524
10
23.1029
20
23.0844
10
23.0531
20
23.1153
10
23.0028
20
23.1450
10
22.9520
20
23.1735
10
22.9007
20
23.2009
10
22.8489
20
23.2271
10
22.7966
20
23.2521
10
22.7439
20
23.2758
10
22.6908
20
23.2983
10
22.6373
20
23.3195
10
22.5834
20
23.3393
10
22.5291
20
23.3578
10
22.4745
20
23.3750
10
22.4195
20
23.3907
10
22.3643
20
23.4049
10
22.3087
20
23.4177
10
22.2529
20
23.4289
10
22.1968
20
23.4386
10
22.1406
20
23.4467
10
22.0841
20
23.4530
10
22.0274
20
23.4577
10
21.9705
20
23.4605
10
21.9135
20
23.4615
10
21.8563
20
23.4605
10
21.7990
20
23.4574
10
21.7416
20
23.4522
10
21.6842
20
23.4446
10
21.6266
20
23.4346
10
21.5689
20
23.4218
10
21.5111
20
23.4060
10
21.4532
20
23.3869
10
21.3952
20
23.3641
10
21.3369
20
23.3367
10
21.2782
20
23.3040
10
21.2188
20
23.2642
10
21.1582
20
23.2144
10
21.0947
20
23.1476
10
21.0148
20
23.0101
10
21.0148
20
23.0101
10
20.4100
20
23.1936
10
19.8184
20
23.4163
10
19.2426
20
23.6771
10
18.6851
20
23.9751
10
18.1484
20
24.3089
10
17.6346
20
24.6771
10
17.1459
20
25.0781
10
16.6846
20
25.5102
10
16.2525
20
25.9715
10
15.8515
20
26.4601
10
15.4833
20
26.9739
10
15.1495
20
27.5107
10
14.8515
20
28.0682
10
14.5907
20
28.6439
10
14.3680
20
29.2355
10
14.1845
20
29.8404
10
14.0410
20
30.4560
10
13.9380
20
31.0797
10
13.8761
20
31.7087
10
13.8554
20
32.3405
10
13.8761
20
32.9722
10
13.9380
20
33.6013
10
14.0410
20
34.2250
10
14.1845
20
34.8406
10
14.3680
20
35.4454
10
14.5907
20
36.0370
10
14.8515
20
36.6128
10
15.1495
20
37.1702
10
15.4833
20
37.7070
10
15.8515
20
38.2208
10
16.2525
20
38.7094
10
16.6846
20
39.1708
10
17.1459
20
39.6029
10
17.6346
20
40.0039
10
18.1484
20
40.3721
10
18.6851
20
40.7059
10
19.2426
20
41.0038
10
19.8184
20
41.2647
10
20.4100
20
41.4874
10
21.0148
20
41.6709
10
21.6304
20
41.8144
10
22.2541
20
41.9174
10
22.8831
20
41.9793
10
23.5149
20
42.0000
10
24.1467
20
41.9793
10
24.7757
20
41.9174
10
25.3994
20
41.8144
10
26.0150
20
41.6709
0
CIRCLE
8
ENGRAVE_MAGATAMA
10
23.5149
20
32.3405
30
0.0
40
4.6366
0
ENDSEC
0
EOF
